<svg xmlns="http://www.w3.org/2000/svg" viewBox="0 0 180 36"><defs><style>.a{fill:#fff;}</style></defs><title>claims-center-white</title><path class="a" d="M26.78,1a17,17,0,1,0,17,17A17,17,0,0,0,26.78,1ZM37,27.68,36,21l-5.45-.46-3.82,4.89-3.91-5L17.2,21l-.55,6.77a14.06,14.06,0,1,1,20.3,0Z"/><path class="a" d="M32.57,11.11v0c.2-1.68-.44-4.25-1.17-4.57s-3,0-3.32,0-1.73-1.09-2.88-.9c-.82.14-1.9,1.9-2.46,2.91a9.15,9.15,0,0,1,2.76-.11,11.69,11.69,0,0,1,5.34,2.09,24.7,24.7,0,0,0-5.1-1.26,23.34,23.34,0,0,0-4-.17c-1.56.32-3.16.94-2.7,1.63a8.52,8.52,0,0,0,2.65,2,6.08,6.08,0,0,0-.56,2.57,5.74,5.74,0,0,0,5.59,5.88,5.73,5.73,0,0,0,5.58-5.82,2.36,2.36,0,0,0,.78-.16,2.28,2.28,0,0,0,1.38-1.57C34.62,12.7,33.62,11.79,32.57,11.11Z"/><path class="a" d="M41.81,33.67h0a.36.36,0,0,0,.29-.32A.38.38,0,0,0,42,33a.83.83,0,0,0-.24-.08l-.24,0A3.37,3.37,0,0,0,41,33v1.39h.32V33.8h.15c.18,0,.26.07.29.22a1.33,1.33,0,0,0,.11.34h.34a1.28,1.28,0,0,1-.1-.35A.41.41,0,0,0,41.81,33.67Zm-.38-.1h-.15v-.39a.62.62,0,0,1,.18,0c.2,0,.29.08.29.21S41.61,33.57,41.43,33.57Z"/><path class="a" d="M41.49,32.25a1.43,1.43,0,0,0-1.15.56,1.37,1.37,0,0,0-.27.82,1.39,1.39,0,0,0,.45,1,1.42,1.42,0,0,0,1,.37,1.4,1.4,0,0,0,1-.4,1.38,1.38,0,0,0,.41-1,1.36,1.36,0,0,0-.4-1A1.43,1.43,0,0,0,41.49,32.25Zm0,2.48a1.05,1.05,0,0,1-.74-.29,1.12,1.12,0,0,1-.34-.81,1.17,1.17,0,0,1,.2-.66,1.06,1.06,0,0,1,1.66-.08,1.15,1.15,0,0,1,.27.75,1.08,1.08,0,0,1-.33.8A1,1,0,0,1,41.5,34.73Z"/><path class="a" d="M70.86,10.48,68,26.92H64.52l2-11.13L60.26,26.92H57L54.65,15.79l-2,11.13H49.25l2.89-16.44h4.49L59.24,23.4l7.12-12.92Z"/><path class="a" d="M73.17,14.83h3.51L74.54,26.92H71Zm.67-4.35h3.68L77,13.41H73.33Z"/><path class="a" d="M79.94,10.48h3.52L80.57,26.92H77.06Z"/><path class="a" d="M83.49,22.19c0-4,2.58-7.8,7.17-7.8,3.23,0,5.14,1.86,5.14,5.1,0,3.93-2.51,7.8-7.17,7.8C85.23,27.29,83.49,25.22,83.49,22.19Zm8.73-2.66c0-1.35-.56-2.16-1.84-2.16-2.35,0-3.31,2.86-3.31,4.75,0,1.37.61,2.19,1.86,2.19C91.36,24.31,92.22,21.19,92.22,19.53Z"/><path class="a" d="M104.49,27.29c-3.79,0-6.54-2.56-6.54-6.82,0-5.45,4-10.37,9.41-10.37A6.92,6.92,0,0,1,113.18,13L111,15.09a4.58,4.58,0,0,0-3.58-1.82c-3.28,0-5.68,3.49-5.68,6.89,0,2.47,1.39,3.89,3.44,3.89a7,7,0,0,0,4.43-1.93l1.63,2.4A10,10,0,0,1,104.49,27.29Z"/><path class="a" d="M115.58,10.48h3.51l-2.88,16.44h-3.52Z"/><path class="a" d="M130.58,18.58a13,13,0,0,1-.24,2.07l-1.09,6.27h-3.14l.13-.91a6.21,6.21,0,0,1-3.67,1.28c-2.24,0-3.61-1.28-3.61-3.4,0-3.33,2.53-4.78,6-4.78a13.24,13.24,0,0,1,2.24.21,3.5,3.5,0,0,0,.09-.69c.12-1.12-.86-1.4-2-1.4a9.32,9.32,0,0,0-3.86,1l-.68-2.56a11,11,0,0,1,5.13-1.28C128.83,14.39,130.58,15.72,130.58,18.58Zm-4.15,5,.37-2a9.49,9.49,0,0,0-1.6-.14c-1.47,0-2.73.38-2.73,1.82,0,.81.56,1.12,1.35,1.12A4.44,4.44,0,0,0,126.43,23.54Z"/><path class="a" d="M133.84,14.83h3.51l-2.14,12.09H131.7Zm.67-4.35h3.68l-.51,2.93H134Z"/><path class="a" d="M142.85,14.83l-.07,1.3a6.31,6.31,0,0,1,4-1.77,3.08,3.08,0,0,1,2.93,1.8,7,7,0,0,1,4.42-1.82A3.3,3.3,0,0,1,157.66,18a9.32,9.32,0,0,1-.14,1.51l-1.33,7.46h-3.51l1.26-7.15a8.25,8.25,0,0,0,.11-1.07,1.16,1.16,0,0,0-1.28-1.28,3.73,3.73,0,0,0-2.58,1.35c-.07.32-.12.65-.19,1l-1.26,7.11H145.2l1.28-7.34a8.9,8.9,0,0,0,.12-1,1.05,1.05,0,0,0-1.19-1.18,4.31,4.31,0,0,0-2.7,1.37l-1.47,8.13h-3.53l2.14-12.09Z"/><path class="a" d="M166.33,19.72c1.32.47,2.7,1.16,2.7,3.05,0,2.79-2.63,4.52-5.89,4.52a7.48,7.48,0,0,1-4.85-1.63L160,23.28a5.73,5.73,0,0,0,3.35,1.24c1.23,0,1.86-.56,1.86-1.14s-.81-.94-1.77-1.26c-1.49-.47-3.58-1-3.58-3.24,0-2.84,2.63-4.47,5.91-4.47a8.38,8.38,0,0,1,4.5,1.24L168.84,18a7.17,7.17,0,0,0-3.19-.84c-1.07,0-1.88.37-1.88,1.1S165.05,19.28,166.33,19.72Z"/></svg>