<svg xmlns="http://www.w3.org/2000/svg" viewBox="0 0 180 36"><title>claims-right-black</title><path d="M18.44,1a17,17,0,1,0,17,17A17,17,0,0,0,18.44,1ZM28.61,27.68l-1-6.65-5.45-.46-3.83,4.89-3.9-5L8.86,21l-.55,6.77a14.06,14.06,0,1,1,20.3,0Z"/><path d="M24.23,11.11a0,0,0,0,1,0,0c.2-1.68-.44-4.25-1.17-4.57s-3,0-3.32,0S18,5.4,16.87,5.59c-.82.14-1.9,1.9-2.46,2.91a9.14,9.14,0,0,1,2.76-.11,11.69,11.69,0,0,1,5.34,2.09,24.7,24.7,0,0,0-5.1-1.26,23.34,23.34,0,0,0-4-.17c-1.56.32-3.16.94-2.7,1.63a8.52,8.52,0,0,0,2.65,2,6.08,6.08,0,0,0-.56,2.57,5.74,5.74,0,0,0,5.59,5.88A5.73,5.73,0,0,0,24,15.34a2.41,2.41,0,0,0,.78-.16,2.28,2.28,0,0,0,1.38-1.57C26.28,12.7,25.28,11.79,24.23,11.11Z"/><path d="M33.47,33.67h0a.35.35,0,0,0,.28-.32.38.38,0,0,0-.13-.31.83.83,0,0,0-.24-.08l-.24,0a3.37,3.37,0,0,0-.53,0v1.39h.32V33.8h.15c.18,0,.26.07.29.22a1,1,0,0,0,.11.34h.34a1.28,1.28,0,0,1-.1-.35A.41.41,0,0,0,33.47,33.67Zm-.38-.1h-.15v-.39l.17,0c.21,0,.3.08.3.21S33.27,33.57,33.09,33.57Z"/><path d="M33.15,32.25a1.43,1.43,0,0,0-1.15.56,1.37,1.37,0,0,0-.28.82,1.43,1.43,0,0,0,.45,1,1.47,1.47,0,0,0,1,.37,1.4,1.4,0,0,0,1-.4,1.38,1.38,0,0,0,.41-1,1.36,1.36,0,0,0-.4-1A1.43,1.43,0,0,0,33.15,32.25Zm0,2.48a1.08,1.08,0,0,1-.75-.29,1.11,1.11,0,0,1-.33-.81,1.17,1.17,0,0,1,.2-.66,1.06,1.06,0,0,1,1.66-.08,1.15,1.15,0,0,1,.27.75,1.08,1.08,0,0,1-.33.8A1,1,0,0,1,33.16,34.73Z"/><path d="M62.52,10.48,59.63,26.92H56.18l2-11.13L51.92,26.92H48.64L46.31,15.79l-2,11.13H40.91l2.88-16.44h4.5L50.9,23.4,58,10.48Z"/><path d="M64.83,14.83h3.51L66.2,26.92H62.68Zm.67-4.35h3.68l-.51,2.93H65Z"/><path d="M71.6,10.48h3.52L72.23,26.92H68.72Z"/><path d="M75.14,22.19c0-4,2.59-7.8,7.17-7.8,3.24,0,5.15,1.86,5.15,5.1,0,3.93-2.51,7.8-7.17,7.8C76.89,27.29,75.14,25.22,75.14,22.19Zm8.74-2.66c0-1.35-.56-2.16-1.84-2.16-2.36,0-3.31,2.86-3.31,4.75,0,1.37.6,2.19,1.86,2.19C83,24.31,83.88,21.19,83.88,19.53Z"/><path d="M96.15,27.29c-3.8,0-6.54-2.56-6.54-6.82,0-5.45,4-10.37,9.4-10.37A6.93,6.93,0,0,1,104.84,13l-2.22,2.1A4.59,4.59,0,0,0,99,13.27c-3.29,0-5.68,3.49-5.68,6.89,0,2.47,1.39,3.89,3.44,3.89a7,7,0,0,0,4.43-1.93l1.63,2.4A10,10,0,0,1,96.15,27.29Z"/><path d="M107.24,10.48h3.51l-2.88,16.44h-3.52Z"/><path d="M122.23,18.58a13,13,0,0,1-.23,2.07l-1.09,6.27h-3.15l.14-.91a6.24,6.24,0,0,1-3.68,1.28c-2.23,0-3.61-1.28-3.61-3.4,0-3.33,2.54-4.78,6-4.78a13.11,13.11,0,0,1,2.23.21,2.86,2.86,0,0,0,.1-.69c.11-1.12-.86-1.4-2-1.4a9.32,9.32,0,0,0-3.86,1l-.68-2.56a11,11,0,0,1,5.12-1.28C120.49,14.39,122.23,15.72,122.23,18.58Zm-4.14,5,.37-2a9.49,9.49,0,0,0-1.6-.14c-1.47,0-2.73.38-2.73,1.82,0,.81.56,1.12,1.35,1.12A4.47,4.47,0,0,0,118.09,23.54Z"/><path d="M125.5,14.83H129l-2.14,12.09h-3.52Zm.67-4.35h3.68l-.51,2.93h-3.68Z"/><path d="M134.51,14.83l-.07,1.3a6.31,6.31,0,0,1,4-1.77,3.09,3.09,0,0,1,2.94,1.8,7,7,0,0,1,4.42-1.82A3.3,3.3,0,0,1,149.32,18a9.32,9.32,0,0,1-.14,1.51l-1.33,7.46h-3.51l1.25-7.15a7,7,0,0,0,.12-1.07,1.16,1.16,0,0,0-1.28-1.28,3.77,3.77,0,0,0-2.59,1.35c-.07.32-.11.65-.18,1l-1.26,7.11h-3.54l1.28-7.34a8.9,8.9,0,0,0,.12-1,1.05,1.05,0,0,0-1.19-1.18,4.29,4.29,0,0,0-2.7,1.37l-1.47,8.13h-3.54l2.15-12.09Z"/><path d="M158,19.72c1.32.47,2.7,1.16,2.7,3.05,0,2.79-2.63,4.52-5.89,4.52A7.48,7.48,0,0,1,150,25.66l1.66-2.38A5.73,5.73,0,0,0,155,24.52c1.23,0,1.86-.56,1.86-1.14s-.81-.94-1.77-1.26c-1.49-.47-3.58-1-3.58-3.24,0-2.84,2.63-4.47,5.91-4.47a8.32,8.32,0,0,1,4.49,1.24L160.5,18a7.17,7.17,0,0,0-3.19-.84c-1.07,0-1.89.37-1.89,1.1S156.71,19.28,158,19.72Z"/></svg>