<svg xmlns="http://www.w3.org/2000/svg" viewBox="0 0 180 36"><defs><style>.a{fill:#6750a0;}</style></defs><title>magnus-right-color</title><path class="a" d="M18.44,1a17,17,0,1,0,17,17A17,17,0,0,0,18.44,1ZM28.61,27.68l-1-6.65-5.45-.46-3.83,4.89-3.9-5L8.86,21l-.55,6.77a14.06,14.06,0,1,1,20.3,0Z"/><path class="a" d="M24.23,11.11a0,0,0,0,1,0,0c.2-1.68-.44-4.25-1.17-4.57s-3,0-3.32,0S18,5.4,16.87,5.59c-.82.14-1.9,1.9-2.46,2.91a9.14,9.14,0,0,1,2.76-.11,11.69,11.69,0,0,1,5.34,2.09,24.7,24.7,0,0,0-5.1-1.26,23.34,23.34,0,0,0-4-.17c-1.56.32-3.16.94-2.7,1.63a8.52,8.52,0,0,0,2.65,2,6.08,6.08,0,0,0-.56,2.57,5.74,5.74,0,0,0,5.59,5.88A5.73,5.73,0,0,0,24,15.34a2.41,2.41,0,0,0,.78-.16,2.28,2.28,0,0,0,1.38-1.57C26.28,12.7,25.28,11.79,24.23,11.11Z"/><path class="a" d="M33.47,33.67h0a.35.35,0,0,0,.28-.32.38.38,0,0,0-.13-.31.83.83,0,0,0-.24-.08l-.24,0a3.37,3.37,0,0,0-.53,0v1.39h.32V33.8h.15c.18,0,.26.07.29.22a1,1,0,0,0,.11.34h.34a1.28,1.28,0,0,1-.1-.35A.41.41,0,0,0,33.47,33.67Zm-.38-.1h-.15v-.39l.17,0c.21,0,.3.08.3.21S33.27,33.57,33.09,33.57Z"/><path class="a" d="M33.15,32.25a1.43,1.43,0,0,0-1.15.56,1.37,1.37,0,0,0-.28.82,1.43,1.43,0,0,0,.45,1,1.47,1.47,0,0,0,1,.37,1.4,1.4,0,0,0,1-.4,1.38,1.38,0,0,0,.41-1,1.36,1.36,0,0,0-.4-1A1.43,1.43,0,0,0,33.15,32.25Zm0,2.48a1.08,1.08,0,0,1-.75-.29,1.11,1.11,0,0,1-.33-.81,1.17,1.17,0,0,1,.2-.66,1.06,1.06,0,0,1,1.66-.08,1.15,1.15,0,0,1,.27.75,1.08,1.08,0,0,1-.33.8A1,1,0,0,1,33.16,34.73Z"/><path class="a" d="M62.52,10.48,59.63,26.92H56.18l2-11.13L51.92,26.92H48.64L46.31,15.79l-2,11.13H40.91l2.88-16.44h4.5L50.9,23.4,58,10.48Z"/><path class="a" d="M64.83,14.83h3.51L66.2,26.92H62.68Zm.67-4.35h3.68l-.51,2.93H65Z"/><path class="a" d="M71.6,10.48h3.52L72.23,26.92H68.72Z"/><path class="a" d="M75.14,22.19c0-4,2.59-7.8,7.17-7.8,3.24,0,5.15,1.86,5.15,5.1,0,3.93-2.51,7.8-7.17,7.8C76.89,27.29,75.14,25.22,75.14,22.19Zm8.74-2.66c0-1.35-.56-2.16-1.84-2.16-2.36,0-3.31,2.86-3.31,4.75,0,1.37.6,2.19,1.86,2.19C83,24.31,83.88,21.19,83.88,19.53Z"/><path class="a" d="M110.4,10.48l-2.89,16.44h-3.44l2-11.13L99.81,26.92H96.52L94.19,15.79l-2,11.13H88.79l2.89-16.44h4.49L98.78,23.4l7.13-12.92Z"/><path class="a" d="M122.44,18.58a13,13,0,0,1-.23,2.07l-1.09,6.27H118l.14-.91a6.24,6.24,0,0,1-3.68,1.28c-2.23,0-3.61-1.28-3.61-3.4,0-3.33,2.54-4.78,6-4.78a13.11,13.11,0,0,1,2.23.21,2.86,2.86,0,0,0,.1-.69c.11-1.12-.86-1.4-2-1.4a9.32,9.32,0,0,0-3.86,1l-.68-2.56a11,11,0,0,1,5.12-1.28C120.7,14.39,122.44,15.72,122.44,18.58Zm-4.14,5,.37-2a9.52,9.52,0,0,0-1.61-.14c-1.46,0-2.72.38-2.72,1.82,0,.81.56,1.12,1.35,1.12A4.47,4.47,0,0,0,118.3,23.54Z"/><path class="a" d="M136.49,14.83l-2,11.06c-.81,4.22-3.14,6.64-7.08,6.64a8.75,8.75,0,0,1-4.79-1.42l1.28-2.59a7.11,7.11,0,0,0,3.4,1,3.65,3.65,0,0,0,3.72-3.14l.14-.63a4.7,4.7,0,0,1-3.47,1.56c-2.65,0-4.07-2-4.07-4.8,0-4,2.3-8.13,6.19-8.13a3.45,3.45,0,0,1,3.28,2.1l.54-1.63Zm-7.55,9.34c2.38,0,3.15-3,3.15-4.66,0-1.3-.59-2-1.75-2-2.3,0-3.14,2.89-3.14,4.7C127.2,23.49,127.8,24.17,128.94,24.17Z"/><path class="a" d="M142,16.06a6.79,6.79,0,0,1,4.19-1.7c1.95,0,3.37,1.19,3.37,3.61a9,9,0,0,1-.16,1.52l-1.33,7.43h-3.51l1.18-6.73a8.48,8.48,0,0,0,.17-1.35c0-1-.49-1.42-1.33-1.42a4.15,4.15,0,0,0-2.79,1.46l-1.47,8h-3.52l2.12-12.09h3.15Z"/><path class="a" d="M161.64,26.92h-3.07l.09-1.42a7,7,0,0,1-4.33,1.79c-1.84,0-3.19-1.14-3.19-3.52a7.81,7.81,0,0,1,.14-1.4l1.3-7.54h3.54L154.87,22a4.73,4.73,0,0,0-.1.88A1.16,1.16,0,0,0,156,24.24a4.29,4.29,0,0,0,2.81-1.52l1.4-7.89h3.54Z"/><path class="a" d="M171.75,19.72c1.33.47,2.7,1.16,2.7,3.05,0,2.79-2.63,4.52-5.89,4.52a7.47,7.47,0,0,1-4.84-1.63l1.65-2.38a5.75,5.75,0,0,0,3.35,1.24c1.24,0,1.87-.56,1.87-1.14s-.82-.94-1.77-1.26c-1.49-.47-3.59-1-3.59-3.24,0-2.84,2.63-4.47,5.92-4.47a8.37,8.37,0,0,1,4.49,1.24L174.27,18a7.17,7.17,0,0,0-3.19-.84c-1.08,0-1.89.37-1.89,1.1S170.47,19.28,171.75,19.72Z"/></svg>