<svg xmlns="http://www.w3.org/2000/svg" viewBox="0 0 180 36"><defs><style>.a{fill:#6750a0;}</style></defs><title>magnus-center-color</title><path class="a" d="M19.9,1a17,17,0,1,0,17,17A17,17,0,0,0,19.9,1ZM30.06,27.68,29.11,21l-5.45-.46-3.83,4.89-3.9-5L10.32,21l-.55,6.77a14.05,14.05,0,1,1,20.29,0Z"/><path class="a" d="M25.69,11.11v0c.2-1.68-.43-4.25-1.16-4.57s-3,0-3.32,0-1.74-1.09-2.88-.9c-.82.14-1.9,1.9-2.46,2.91a9.14,9.14,0,0,1,2.76-.11A11.73,11.73,0,0,1,24,10.48a24.7,24.7,0,0,0-5.1-1.26,23.34,23.34,0,0,0-4-.17c-1.57.32-3.16.94-2.7,1.63a8.52,8.52,0,0,0,2.65,2,6.08,6.08,0,0,0-.56,2.57,5.74,5.74,0,0,0,5.58,5.88,5.74,5.74,0,0,0,5.59-5.82,2.41,2.41,0,0,0,.78-.16,2.28,2.28,0,0,0,1.38-1.57C27.74,12.7,26.74,11.79,25.69,11.11Z"/><path class="a" d="M34.93,33.67h0a.35.35,0,0,0,.28-.32.41.41,0,0,0-.13-.31.83.83,0,0,0-.24-.08l-.24,0a3.26,3.26,0,0,0-.53,0v1.39h.32V33.8h.15c.18,0,.26.07.29.22a1,1,0,0,0,.11.34h.34a1.28,1.28,0,0,1-.1-.35A.41.41,0,0,0,34.93,33.67Zm-.38-.1H34.4v-.39l.17,0c.21,0,.3.08.3.21S34.72,33.57,34.55,33.57Z"/><path class="a" d="M34.61,32.25a1.43,1.43,0,0,0-1.15.56,1.37,1.37,0,0,0-.28.82,1.43,1.43,0,0,0,.45,1,1.47,1.47,0,0,0,1,.37,1.41,1.41,0,0,0,1-.4,1.38,1.38,0,0,0,.41-1,1.36,1.36,0,0,0-.4-1A1.43,1.43,0,0,0,34.61,32.25Zm0,2.48a1.08,1.08,0,0,1-.75-.29,1.11,1.11,0,0,1-.33-.81,1.17,1.17,0,0,1,.2-.66,1.06,1.06,0,0,1,1.66-.08,1.15,1.15,0,0,1,.27.75,1.08,1.08,0,0,1-.33.8A1,1,0,0,1,34.62,34.73Z"/><path class="a" d="M64,10.48,61.09,26.92H57.64l2-11.13L53.38,26.92H50.1L47.77,15.79l-2,11.13H42.37l2.88-16.44h4.5L52.36,23.4l7.12-12.92Z"/><path class="a" d="M66.28,14.83H69.8L67.66,26.92H64.14ZM67,10.48h3.68l-.51,2.93H66.45Z"/><path class="a" d="M73.06,10.48h3.52L73.69,26.92H70.17Z"/><path class="a" d="M76.6,22.19c0-4,2.59-7.8,7.17-7.8,3.24,0,5.15,1.86,5.15,5.1,0,3.93-2.51,7.8-7.17,7.8C78.35,27.29,76.6,25.22,76.6,22.19Zm8.73-2.66c0-1.35-.55-2.16-1.84-2.16-2.35,0-3.3,2.86-3.3,4.75,0,1.37.6,2.19,1.86,2.19C84.47,24.31,85.33,21.19,85.33,19.53Z"/><path class="a" d="M111.86,10.48,109,26.92h-3.44l2-11.13-6.22,11.13H98L95.65,15.79l-2,11.13H90.25l2.89-16.44h4.49l2.61,12.92,7.12-12.92Z"/><path class="a" d="M123.9,18.58a13,13,0,0,1-.23,2.07l-1.09,6.27h-3.15l.14-.91a6.24,6.24,0,0,1-3.68,1.28c-2.23,0-3.61-1.28-3.61-3.4,0-3.33,2.54-4.78,6-4.78a13.21,13.21,0,0,1,2.23.21,2.86,2.86,0,0,0,.1-.69c.11-1.12-.87-1.4-2-1.4a9.41,9.41,0,0,0-3.87,1l-.67-2.56a11,11,0,0,1,5.12-1.28C122.16,14.39,123.9,15.72,123.9,18.58Zm-4.14,5,.37-2a9.52,9.52,0,0,0-1.61-.14c-1.46,0-2.72.38-2.72,1.82,0,.81.56,1.12,1.35,1.12A4.47,4.47,0,0,0,119.76,23.54Z"/><path class="a" d="M138,14.83l-2,11.06c-.81,4.22-3.14,6.64-7.08,6.64a8.75,8.75,0,0,1-4.79-1.42l1.28-2.59a7.08,7.08,0,0,0,3.4,1,3.65,3.65,0,0,0,3.72-3.14l.14-.63a4.7,4.7,0,0,1-3.47,1.56c-2.65,0-4.07-2-4.07-4.8,0-4,2.3-8.13,6.19-8.13a3.45,3.45,0,0,1,3.28,2.1l.54-1.63Zm-7.55,9.34c2.38,0,3.15-3,3.15-4.66,0-1.3-.59-2-1.75-2-2.31,0-3.14,2.89-3.14,4.7C128.66,23.49,129.26,24.17,130.4,24.17Z"/><path class="a" d="M143.45,16.06a6.79,6.79,0,0,1,4.19-1.7c2,0,3.37,1.19,3.37,3.61a9,9,0,0,1-.16,1.52l-1.33,7.43H146l1.18-6.73a8.48,8.48,0,0,0,.17-1.35c0-1-.49-1.42-1.33-1.42a4.13,4.13,0,0,0-2.79,1.46l-1.47,8h-3.52l2.12-12.09h3.15Z"/><path class="a" d="M163.1,26.92H160l.09-1.42a7,7,0,0,1-4.33,1.79c-1.84,0-3.19-1.14-3.19-3.52a7.81,7.81,0,0,1,.14-1.4l1.3-7.54h3.54L156.33,22a4.73,4.73,0,0,0-.1.88,1.16,1.16,0,0,0,1.24,1.33,4.29,4.29,0,0,0,2.81-1.52l1.4-7.89h3.54Z"/><path class="a" d="M173.21,19.72c1.33.47,2.7,1.16,2.7,3.05,0,2.79-2.63,4.52-5.89,4.52a7.47,7.47,0,0,1-4.84-1.63l1.65-2.38a5.73,5.73,0,0,0,3.35,1.24c1.24,0,1.87-.56,1.87-1.14s-.82-.94-1.77-1.26c-1.49-.47-3.59-1-3.59-3.24,0-2.84,2.63-4.47,5.91-4.47a8.38,8.38,0,0,1,4.5,1.24L175.72,18a7.11,7.11,0,0,0-3.19-.84c-1.07,0-1.88.37-1.88,1.1S171.93,19.28,173.21,19.72Z"/></svg>