<svg xmlns="http://www.w3.org/2000/svg" viewBox="0 0 180 36"><defs><style>.a{fill:#a6216b;}</style></defs><title>classrooms-center-color</title><path class="a" d="M24.15,1a17,17,0,1,0,17,17A17,17,0,0,0,24.15,1ZM34.32,27.68l-1-6.65-5.45-.46-3.83,4.89-3.9-5L14.57,21,14,27.72a14.06,14.06,0,1,1,20.3,0Z"/><path class="a" d="M29.94,11.11a0,0,0,0,1,0,0c.2-1.68-.44-4.25-1.17-4.57s-3,0-3.32,0-1.74-1.09-2.88-.9c-.82.14-1.9,1.9-2.46,2.91a9.14,9.14,0,0,1,2.76-.11,11.69,11.69,0,0,1,5.34,2.09,24.7,24.7,0,0,0-5.1-1.26,23.34,23.34,0,0,0-4-.17c-1.56.32-3.16.94-2.7,1.63a8.52,8.52,0,0,0,2.65,2,6.08,6.08,0,0,0-.56,2.57,5.74,5.74,0,0,0,5.59,5.88,5.73,5.73,0,0,0,5.58-5.82,2.41,2.41,0,0,0,.78-.16,2.28,2.28,0,0,0,1.38-1.57C32,12.7,31,11.79,29.94,11.11Z"/><path class="a" d="M39.18,33.67h0a.35.35,0,0,0,.28-.32.38.38,0,0,0-.13-.31.83.83,0,0,0-.24-.08l-.24,0a3.37,3.37,0,0,0-.53,0v1.39h.32V33.8h.15c.18,0,.26.07.29.22a1,1,0,0,0,.11.34h.34a1.28,1.28,0,0,1-.1-.35A.41.41,0,0,0,39.18,33.67Zm-.38-.1h-.15v-.39l.17,0c.21,0,.3.08.3.21S39,33.57,38.8,33.57Z"/><path class="a" d="M38.86,32.25a1.43,1.43,0,0,0-1.15.56,1.37,1.37,0,0,0-.28.82,1.43,1.43,0,0,0,.45,1,1.47,1.47,0,0,0,1,.37,1.4,1.4,0,0,0,1-.4,1.38,1.38,0,0,0,.41-1,1.36,1.36,0,0,0-.4-1A1.43,1.43,0,0,0,38.86,32.25Zm0,2.48a1.08,1.08,0,0,1-.75-.29,1.11,1.11,0,0,1-.33-.81A1.17,1.17,0,0,1,38,33a1.06,1.06,0,0,1,1.66-.08,1.15,1.15,0,0,1,.27.75,1.08,1.08,0,0,1-.33.8A1,1,0,0,1,38.87,34.73Z"/><path class="a" d="M54,27.29c-3.79,0-6.54-2.56-6.54-6.83,0-5.44,4-10.36,9.41-10.36A6.92,6.92,0,0,1,62.66,13l-2.21,2.1a4.61,4.61,0,0,0-3.59-1.82c-3.28,0-5.68,3.49-5.68,6.89,0,2.47,1.4,3.89,3.45,3.89a7,7,0,0,0,4.42-1.93l1.63,2.4A10,10,0,0,1,54,27.29Z"/><path class="a" d="M65.06,10.48h3.52L65.69,26.92H62.17Z"/><path class="a" d="M80.06,18.58a14.24,14.24,0,0,1-.23,2.07l-1.1,6.27H75.59l.14-.91a6.26,6.26,0,0,1-3.68,1.28c-2.24,0-3.61-1.28-3.61-3.4,0-3.33,2.54-4.78,6-4.78a13.24,13.24,0,0,1,2.24.21,2.88,2.88,0,0,0,.09-.69c.12-1.12-.86-1.4-2-1.4a9.32,9.32,0,0,0-3.87,1l-.67-2.56a10.94,10.94,0,0,1,5.12-1.28C78.31,14.39,80.06,15.71,80.06,18.58Zm-4.15,5,.38-2a9.62,9.62,0,0,0-1.61-.14c-1.47,0-2.72.38-2.72,1.82,0,.81.55,1.12,1.35,1.12A4.43,4.43,0,0,0,75.91,23.54Z"/><path class="a" d="M88.82,19.72c1.32.47,2.7,1.16,2.7,3.05,0,2.79-2.63,4.52-5.89,4.52a7.5,7.5,0,0,1-4.85-1.63l1.66-2.38a5.73,5.73,0,0,0,3.35,1.24c1.23,0,1.86-.56,1.86-1.14s-.81-.94-1.77-1.26c-1.49-.47-3.58-1-3.58-3.24,0-2.84,2.63-4.47,5.91-4.47a8.38,8.38,0,0,1,4.5,1.24L91.33,18a7.17,7.17,0,0,0-3.19-.84c-1.07,0-1.88.37-1.88,1.1S87.54,19.28,88.82,19.72Z"/><path class="a" d="M100.42,19.72c1.32.47,2.7,1.16,2.7,3.05,0,2.79-2.63,4.52-5.89,4.52a7.48,7.48,0,0,1-4.85-1.63L94,23.28a5.73,5.73,0,0,0,3.35,1.24c1.23,0,1.86-.56,1.86-1.14s-.81-.94-1.77-1.26c-1.49-.47-3.58-1-3.58-3.24,0-2.84,2.63-4.47,5.91-4.47a8.32,8.32,0,0,1,4.49,1.24L102.93,18a7.17,7.17,0,0,0-3.19-.84c-1.07,0-1.89.37-1.89,1.1S99.13,19.28,100.42,19.72Z"/><path class="a" d="M112.74,14.53a4.19,4.19,0,0,1,1.51.3l-1,3a3.82,3.82,0,0,0-1.21-.24,3.57,3.57,0,0,0-2.86,1.77l-1.33,7.53h-3.52l2.15-12.09h2.84l0,1.61A4.31,4.31,0,0,1,112.74,14.53Z"/><path class="a" d="M113.74,22.19c0-4,2.58-7.8,7.17-7.8,3.24,0,5.15,1.86,5.15,5.1,0,3.93-2.52,7.8-7.17,7.8C115.49,27.29,113.74,25.21,113.74,22.19Zm8.73-2.66c0-1.35-.56-2.16-1.84-2.16-2.35,0-3.3,2.86-3.3,4.75,0,1.37.6,2.19,1.86,2.19C121.61,24.31,122.47,21.19,122.47,19.53Z"/><path class="a" d="M127.27,22.19c0-4,2.59-7.8,7.17-7.8,3.24,0,5.15,1.86,5.15,5.1,0,3.93-2.52,7.8-7.17,7.8C129,27.29,127.27,25.21,127.27,22.19ZM136,19.53c0-1.35-.56-2.16-1.84-2.16-2.35,0-3.3,2.86-3.3,4.75,0,1.37.6,2.19,1.86,2.19C135.14,24.31,136,21.19,136,19.53Z"/><path class="a" d="M145.48,14.83l-.07,1.3a6.31,6.31,0,0,1,4-1.77,3.06,3.06,0,0,1,2.93,1.8,7,7,0,0,1,4.43-1.82A3.3,3.3,0,0,1,160.29,18a8.32,8.32,0,0,1-.14,1.51l-1.32,7.46h-3.52l1.26-7.15a6.79,6.79,0,0,0,.11-1.07,1.16,1.16,0,0,0-1.28-1.28,3.73,3.73,0,0,0-2.58,1.35c-.07.32-.12.65-.19,1l-1.25,7.11h-3.55l1.29-7.34c0-.35.11-.75.11-1A1.05,1.05,0,0,0,148,17.42a4.31,4.31,0,0,0-2.7,1.37l-1.46,8.13h-3.54l2.14-12.09Z"/><path class="a" d="M169,19.72c1.33.47,2.7,1.16,2.7,3.05,0,2.79-2.63,4.52-5.89,4.52a7.47,7.47,0,0,1-4.84-1.63l1.65-2.38a5.73,5.73,0,0,0,3.35,1.24c1.24,0,1.86-.56,1.86-1.14s-.81-.94-1.76-1.26c-1.49-.47-3.59-1-3.59-3.24,0-2.84,2.63-4.47,5.91-4.47a8.38,8.38,0,0,1,4.5,1.24L171.47,18a7.11,7.11,0,0,0-3.19-.84c-1.07,0-1.88.37-1.88,1.1S167.68,19.28,169,19.72Z"/></svg>