<svg xmlns="http://www.w3.org/2000/svg" viewBox="0 0 180 36"><defs><style>.a{fill:#ef5154;}</style></defs><title>rates-right-color</title><path class="a" d="M18.44,1a17,17,0,1,0,17,17A17,17,0,0,0,18.44,1ZM28.61,27.68l-1-6.65-5.45-.46-3.83,4.89-3.9-5L8.86,21l-.55,6.77a14.06,14.06,0,1,1,20.3,0Z"/><path class="a" d="M24.23,11.11a0,0,0,0,1,0,0c.2-1.68-.44-4.25-1.17-4.57s-3,0-3.32,0S18,5.4,16.87,5.59c-.82.14-1.9,1.9-2.46,2.91a9.14,9.14,0,0,1,2.76-.11,11.69,11.69,0,0,1,5.34,2.09,24.7,24.7,0,0,0-5.1-1.26,23.34,23.34,0,0,0-4-.17c-1.56.32-3.16.94-2.7,1.63a8.52,8.52,0,0,0,2.65,2,6.08,6.08,0,0,0-.56,2.57,5.74,5.74,0,0,0,5.59,5.88A5.73,5.73,0,0,0,24,15.34a2.41,2.41,0,0,0,.78-.16,2.28,2.28,0,0,0,1.38-1.57C26.28,12.7,25.28,11.79,24.23,11.11Z"/><path class="a" d="M33.47,33.67h0a.35.35,0,0,0,.28-.32.38.38,0,0,0-.13-.31.83.83,0,0,0-.24-.08l-.24,0a3.37,3.37,0,0,0-.53,0v1.39h.32V33.8h.15c.18,0,.26.07.29.22a1,1,0,0,0,.11.34h.34a1.28,1.28,0,0,1-.1-.35A.41.41,0,0,0,33.47,33.67Zm-.38-.1h-.15v-.39l.17,0c.21,0,.3.08.3.21S33.27,33.57,33.09,33.57Z"/><path class="a" d="M33.15,32.25a1.43,1.43,0,0,0-1.15.56,1.37,1.37,0,0,0-.28.82,1.43,1.43,0,0,0,.45,1,1.47,1.47,0,0,0,1,.37,1.4,1.4,0,0,0,1-.4,1.38,1.38,0,0,0,.41-1,1.36,1.36,0,0,0-.4-1A1.43,1.43,0,0,0,33.15,32.25Zm0,2.48a1.08,1.08,0,0,1-.75-.29,1.11,1.11,0,0,1-.33-.81,1.17,1.17,0,0,1,.2-.66,1.06,1.06,0,0,1,1.66-.08,1.15,1.15,0,0,1,.27.75,1.08,1.08,0,0,1-.33.8A1,1,0,0,1,33.16,34.73Z"/><path class="a" d="M62.52,10.48,59.63,26.92H56.18l2-11.13L51.92,26.92H48.64L46.31,15.79l-2,11.13H40.91l2.88-16.44h4.5L50.9,23.4,58,10.48Z"/><path class="a" d="M64.83,14.83h3.51L66.2,26.92H62.68Zm.67-4.35h3.68l-.51,2.93H65Z"/><path class="a" d="M71.6,10.48h3.52L72.23,26.92H68.71Z"/><path class="a" d="M75.14,22.19c0-4,2.59-7.8,7.17-7.8,3.24,0,5.15,1.86,5.15,5.1,0,3.93-2.51,7.8-7.17,7.8C76.89,27.29,75.14,25.22,75.14,22.19Zm8.74-2.66c0-1.35-.56-2.16-1.84-2.16-2.36,0-3.31,2.86-3.31,4.75,0,1.37.6,2.19,1.86,2.19C83,24.31,83.88,21.19,83.88,19.53Z"/><path class="a" d="M98,26.92l-1.7-5.73H93.38l-1,5.73H88.79l2.89-16.44h7c3.21,0,5.26,1.18,5.26,4.19,0,2.61-1.16,5-3.79,5.93l2,6.32ZM93.94,18h3.49a2.68,2.68,0,0,0,2.79-2.95c0-1.17-.67-1.52-1.84-1.52H94.71Z"/><path class="a" d="M116.18,18.58a14.24,14.24,0,0,1-.23,2.07l-1.1,6.27h-3.14l.14-.91a6.26,6.26,0,0,1-3.68,1.28c-2.24,0-3.61-1.28-3.61-3.4,0-3.33,2.54-4.78,6-4.78a13.24,13.24,0,0,1,2.24.21,2.88,2.88,0,0,0,.09-.69c.12-1.12-.86-1.4-2-1.4a9.32,9.32,0,0,0-3.87,1l-.67-2.56a10.94,10.94,0,0,1,5.12-1.28C114.43,14.39,116.18,15.72,116.18,18.58Zm-4.15,5,.38-2a9.62,9.62,0,0,0-1.61-.14c-1.47,0-2.72.38-2.72,1.82,0,.81.55,1.12,1.35,1.12A4.43,4.43,0,0,0,112,23.54Z"/><path class="a" d="M125.38,26.43a8.52,8.52,0,0,1-3.59.86c-2.09,0-3.35-1-3.35-3.36a9.48,9.48,0,0,1,.16-1.51l.84-4.77H118l.49-2.77h1.45l.65-3.54h3.52l-.63,3.54h3.16l-.46,2.77H123l-.84,4.65a6.54,6.54,0,0,0-.14,1.08c0,.55.21.93,1.12.93a5.14,5.14,0,0,0,1.89-.42Z"/><path class="a" d="M138.33,18.84a9,9,0,0,1-.72,3.33h-7.34a2.15,2.15,0,0,0,2.42,2.35,7.6,7.6,0,0,0,3.45-1l.67,2.38a8.94,8.94,0,0,1-4.7,1.44c-3.17,0-5.42-1.81-5.42-5.19,0-4,2.91-7.73,7.1-7.73A4.17,4.17,0,0,1,138.33,18.84Zm-3.17-.1a1.47,1.47,0,0,0-1.63-1.58,3,3,0,0,0-2.86,2.65H135A3.56,3.56,0,0,0,135.16,18.74Z"/><path class="a" d="M146.62,19.72c1.33.47,2.7,1.16,2.7,3.05,0,2.79-2.63,4.52-5.89,4.52a7.47,7.47,0,0,1-4.84-1.63l1.65-2.38a5.73,5.73,0,0,0,3.35,1.24c1.24,0,1.87-.56,1.87-1.14s-.82-.94-1.77-1.26c-1.49-.47-3.59-1-3.59-3.24,0-2.84,2.63-4.47,5.92-4.47a8.37,8.37,0,0,1,4.49,1.24L149.13,18a7.1,7.1,0,0,0-3.18-.84c-1.08,0-1.89.37-1.89,1.1S145.34,19.28,146.62,19.72Z"/></svg>